<svg aria-roledescription="er" viewBox="0 0 877.7685546875 854" style="max-width: 877.769px; background-color: white;" xmlns:xlink="http://www.w3.org/1999/xlink" xmlns="http://www.w3.org/2000/svg" width="100%" id="mermaid-0"><style>#mermaid-0{font-family:"trebuchet ms",verdana,arial,sans-serif;font-size:16px;fill:#000000;}#mermaid-0 .error-icon{fill:#552222;}#mermaid-0 .error-text{fill:#552222;stroke:#552222;}#mermaid-0 .edge-thickness-normal{stroke-width:2px;}#mermaid-0 .edge-thickness-thick{stroke-width:3.5px;}#mermaid-0 .edge-pattern-solid{stroke-dasharray:0;}#mermaid-0 .edge-pattern-dashed{stroke-dasharray:3;}#mermaid-0 .edge-pattern-dotted{stroke-dasharray:2;}#mermaid-0 .marker{fill:#000000;stroke:#000000;}#mermaid-0 .marker.cross{stroke:#000000;}#mermaid-0 svg{font-family:"trebuchet ms",verdana,arial,sans-serif;font-size:16px;}#mermaid-0 .entityBox{fill:#cde498;stroke:#13540c;}#mermaid-0 .attributeBoxOdd{fill:#ffffff;stroke:#13540c;}#mermaid-0 .attributeBoxEven{fill:#f2f2f2;stroke:#13540c;}#mermaid-0 .relationshipLabelBox{fill:hsl(78.1578947368, 58.4615384615%, 84.5098039216%);opacity:0.7;background-color:hsl(78.1578947368, 58.4615384615%, 84.5098039216%);}#mermaid-0 .relationshipLabelBox rect{opacity:0.5;}#mermaid-0 .relationshipLine{stroke:#000000;}#mermaid-0 .entityTitleText{text-anchor:middle;font-size:18px;fill:#000000;}#mermaid-0 :root{--mermaid-font-family:"trebuchet ms",verdana,arial,sans-serif;}</style><g/><defs><marker orient="auto" markerHeight="18" markerWidth="18" refY="9" refX="0" id="ONLY_ONE_START"><path d="M9,0 L9,18 M15,0 L15,18" fill="none" stroke="gray"/></marker></defs><defs><marker orient="auto" markerHeight="18" markerWidth="18" refY="9" refX="18" id="ONLY_ONE_END"><path d="M3,0 L3,18 M9,0 L9,18" fill="none" stroke="gray"/></marker></defs><defs><marker orient="auto" markerHeight="18" markerWidth="30" refY="9" refX="0" id="ZERO_OR_ONE_START"><circle r="6" cy="9" cx="21" fill="white" stroke="gray"/><path d="M9,0 L9,18" fill="none" stroke="gray"/></marker></defs><defs><marker orient="auto" markerHeight="18" markerWidth="30" refY="9" refX="30" id="ZERO_OR_ONE_END"><circle r="6" cy="9" cx="9" fill="white" stroke="gray"/><path d="M21,0 L21,18" fill="none" stroke="gray"/></marker></defs><defs><marker orient="auto" markerHeight="36" markerWidth="45" refY="18" refX="18" id="ONE_OR_MORE_START"><path d="M0,18 Q 18,0 36,18 Q 18,36 0,18 M42,9 L42,27" fill="none" stroke="gray"/></marker></defs><defs><marker orient="auto" markerHeight="36" markerWidth="45" refY="18" refX="27" id="ONE_OR_MORE_END"><path d="M3,9 L3,27 M9,18 Q27,0 45,18 Q27,36 9,18" fill="none" stroke="gray"/></marker></defs><defs><marker orient="auto" markerHeight="36" markerWidth="57" refY="18" refX="18" id="ZERO_OR_MORE_START"><circle r="6" cy="18" cx="48" fill="white" stroke="gray"/><path d="M0,18 Q18,0 36,18 Q18,36 0,18" fill="none" stroke="gray"/></marker></defs><defs><marker orient="auto" markerHeight="36" markerWidth="57" refY="18" refX="39" id="ZERO_OR_MORE_END"><circle r="6" cy="18" cx="9" fill="white" stroke="gray"/><path d="M21,18 Q39,0 57,18 Q39,36 21,18" fill="none" stroke="gray"/></marker></defs><path style="stroke: gray; fill: none;" marker-start="url(#ZERO_OR_MORE_START)" marker-end="url(#ZERO_OR_ONE_END)" d="M87.69358825683594,600L87.69358825683594,608.3333333333334C87.69358825683594,616.6666666666666,87.69358825683594,633.3333333333334,131.36895497639975,657.1635072124825C175.04432169596353,680.9936810916316,262.3950551350911,711.9873621832634,306.07042185465497,727.4842027290791L349.74578857421875,742.9810432748949" class="er relationshipLine"/><path style="stroke: gray; fill: none;" marker-start="url(#ZERO_OR_MORE_START)" marker-end="url(#ZERO_OR_ONE_END)" d="M157.2594933143029,154L145.66517580472507,162.33333333333334C134.07085829514725,170.66666666666666,110.88222327599158,187.33333333333334,99.28790576641376,215.16666666666666C87.69358825683594,243,87.69358825683594,282,87.69358825683594,321C87.69358825683594,360,87.69358825683594,399,87.69358825683594,426.8333333333333C87.69358825683594,454.6666666666667,87.69358825683594,471.3333333333333,87.69358825683594,479.6666666666667L87.69358825683594,488" class="er relationshipLine"/><path style="stroke: gray; fill: none;" marker-start="url(#ZERO_OR_MORE_START)" marker-end="url(#ONLY_ONE_END)" d="M253.28915496565338,154L253.63882522365645,162.33333333333334C253.98849548165956,170.66666666666666,254.6878359976657,187.33333333333334,255.03750625566877,215.16666666666666C255.38717651367188,243,255.38717651367188,282,255.38717651367188,321C255.38717651367188,360,255.38717651367188,399,255.38717651367188,436.1666666666667C255.38717651367188,473.3333333333333,255.38717651367188,508.6666666666667,255.38717651367188,544C255.38717651367188,579.3333333333334,255.38717651367188,614.6666666666666,271.1136118570964,643.6876557774408C286.8400472005208,672.708644888215,318.2929178873698,695.41728977643,334.01935323079425,706.7716122205375L349.74578857421875,718.125934664645" class="er relationshipLine"/><path style="stroke: gray; fill: none;" marker-start="url(#ZERO_OR_MORE_START)" marker-end="url(#ONLY_ONE_END)" d="M310.55411223061066,154L318.02628961112083,162.33333333333334C325.49846699163106,170.66666666666666,340.44282175265147,187.33333333333334,386.79944050889407,210.26273999316803C433.1560592651367,233.19214665300274,510.92494201660156,262.38429330600553,549.809383392334,276.9803666325069L588.6938247680664,291.57643995900827" class="er relationshipLine"/><path style="stroke: gray; fill: none;" marker-start="url(#ZERO_OR_ONE_START)" marker-end="url(#ONLY_ONE_END)" d="M348.79761505126953,143.13905125277753L366.5625419616699,153.28254271064796C384.3274688720703,163.42603416851836,419.8573226928711,183.71301708425918,435.34213501367816,205.8565085421296C450.82694733448517,228,446.2667181552985,252,443.98660356570514,264L441.70648897611176,276" class="er relationshipLine"/><path style="stroke: gray; fill: none;" marker-start="url(#ZERO_OR_ONE_START)" marker-end="url(#ONLY_ONE_END)" d="M588.6938247680664,363.27056873707323L565.5977923075358,375.72547394756106C542.5017598470052,388.1803791580489,496.30969492594403,413.0901895790244,473.2136624654134,435.71176145617886C450.1176300048828,458.3333333333333,450.1176300048828,478.6666666666667,450.1176300048828,488.8333333333333L450.1176300048828,499" class="er relationshipLine"/><path style="stroke: gray; fill: none;" marker-start="url(#ZERO_OR_MORE_START)" marker-end="url(#ZERO_OR_ONE_END)" d="M635.6353732378055,388L631.7244494185489,396.3333333333333C627.8135255992922,404.6666666666667,619.9916779607789,421.3333333333333,616.0807541415223,447.3333333333333C612.1698303222656,473.3333333333333,612.1698303222656,508.6666666666667,612.1698303222656,544C612.1698303222656,579.3333333333334,612.1698303222656,614.6666666666666,590.9970194498698,645.0546043397818C569.824208577474,675.442542012897,527.4785868326823,700.8850840257941,506.30577596028644,713.6063550322425L485.1329650878906,726.327626038691" class="er relationshipLine"/><path style="stroke: gray; fill: none;" marker-start="url(#ZERO_OR_MORE_START)" marker-end="url(#ONLY_ONE_END)" d="M734.588871621678,388L742.9855968551418,396.3333333333333C751.3823220886056,404.6666666666667,768.1757725555332,421.3333333333333,776.5724977889971,438C784.9692230224609,454.6666666666667,784.9692230224609,471.3333333333333,784.9692230224609,479.6666666666667L784.9692230224609,488" class="er relationshipLine"/><path style="stroke: gray; fill: none;" marker-start="url(#ZERO_OR_MORE_START)" marker-end="url(#ONLY_ONE_END)" d="M720.8006439208984,143L720.8006439208984,153.16666666666666C720.8006439208984,163.33333333333334,720.8006439208984,183.66666666666666,716.974330304355,202.16666666666666C713.1480166878115,220.66666666666666,705.4953894547248,237.33333333333334,701.6690758381814,245.66666666666666L697.8427622216379,254" class="er relationshipLine"/><path style="stroke: gray; fill: none;" marker-start="url(#ZERO_OR_MORE_START)" marker-end="url(#ONLY_ONE_END)" d="M784.9692230224609,600L784.9692230224609,608.3333333333334C784.9692230224609,616.6666666666666,784.9692230224609,633.3333333333334,734.9965133666992,657.575053673362C685.0238037109375,681.8167740133907,585.0783843994141,713.6335480267816,535.1056747436523,729.5419350334769L485.1329650878906,745.4503220401723" class="er relationshipLine"/><g transform="translate(377.61829376220703,276 )" id="entity-TicketStatus-7c394d07-1492-477e-9dfd-c4cc56dd697f"><rect height="90" width="111.07553100585938" y="0" x="0" class="er entityBox"/><text style="dominant-baseline: middle; text-anchor: middle; font-size: 12px;" transform="translate(55.53776550292969,12)" y="0" x="0" id="text-entity-TicketStatus-7c394d07-1492-477e-9dfd-c4cc56dd697f" class="er entityLabel">TicketStatus</text><rect height="22" width="55.53776550292969" y="24" x="0" class="er attributeBoxOdd"/><text style="dominant-baseline: middle; font-size: 10.2px;" transform="translate(5,35)" y="0" x="0" id="text-entity-TicketStatus-7c394d07-1492-477e-9dfd-c4cc56dd697f-attr-1-type" class="er entityLabel">PENDING</text><rect height="22" width="55.53776550292969" y="24" x="55.53776550292969" class="er attributeBoxOdd"/><text style="dominant-baseline: middle; font-size: 10.2px;" transform="translate(60.53776550292969,35)" y="0" x="0" id="text-entity-TicketStatus-7c394d07-1492-477e-9dfd-c4cc56dd697f-attr-1-name" class="er entityLabel">PENDING</text><rect height="22" width="55.53776550292969" y="46" x="0" class="er attributeBoxEven"/><text style="dominant-baseline: middle; font-size: 10.2px;" transform="translate(5,57)" y="0" x="0" id="text-entity-TicketStatus-7c394d07-1492-477e-9dfd-c4cc56dd697f-attr-2-type" class="er entityLabel">ASSIGNED</text><rect height="22" width="55.53776550292969" y="46" x="55.53776550292969" class="er attributeBoxEven"/><text style="dominant-baseline: middle; font-size: 10.2px;" transform="translate(60.53776550292969,57)" y="0" x="0" id="text-entity-TicketStatus-7c394d07-1492-477e-9dfd-c4cc56dd697f-attr-2-name" class="er entityLabel">ASSIGNED</text><rect height="22" width="55.53776550292969" y="68" x="0" class="er attributeBoxOdd"/><text style="dominant-baseline: middle; font-size: 10.2px;" transform="translate(5,79)" y="0" x="0" id="text-entity-TicketStatus-7c394d07-1492-477e-9dfd-c4cc56dd697f-attr-3-type" class="er entityLabel">CLOSED</text><rect height="22" width="55.53776550292969" y="68" x="55.53776550292969" class="er attributeBoxOdd"/><text style="dominant-baseline: middle; font-size: 10.2px;" transform="translate(60.53776550292969,79)" y="0" x="0" id="text-entity-TicketStatus-7c394d07-1492-477e-9dfd-c4cc56dd697f-attr-3-name" class="er entityLabel">CLOSED</text></g><g transform="translate(388.0654296875,499 )" id="entity-ChatMedium-2b7a99cf-cd24-448d-a213-55ca9f25c245"><rect height="90" width="124.10440063476562" y="0" x="0" class="er entityBox"/><text style="dominant-baseline: middle; text-anchor: middle; font-size: 12px;" transform="translate(62.05220031738281,12)" y="0" x="0" id="text-entity-ChatMedium-2b7a99cf-cd24-448d-a213-55ca9f25c245" class="er entityLabel">ChatMedium</text><rect height="22" width="62.05220031738281" y="24" x="0" class="er attributeBoxOdd"/><text style="dominant-baseline: middle; font-size: 10.2px;" transform="translate(5,35)" y="0" x="0" id="text-entity-ChatMedium-2b7a99cf-cd24-448d-a213-55ca9f25c245-attr-1-type" class="er entityLabel">TELEGRAM</text><rect height="22" width="62.05220031738281" y="24" x="62.05220031738281" class="er attributeBoxOdd"/><text style="dominant-baseline: middle; font-size: 10.2px;" transform="translate(67.05220031738281,35)" y="0" x="0" id="text-entity-ChatMedium-2b7a99cf-cd24-448d-a213-55ca9f25c245-attr-1-name" class="er entityLabel">TELEGRAM</text><rect height="22" width="62.05220031738281" y="46" x="0" class="er attributeBoxEven"/><text style="dominant-baseline: middle; font-size: 10.2px;" transform="translate(5,57)" y="0" x="0" id="text-entity-ChatMedium-2b7a99cf-cd24-448d-a213-55ca9f25c245-attr-2-type" class="er entityLabel">INSTAGRAM</text><rect height="22" width="62.05220031738281" y="46" x="62.05220031738281" class="er attributeBoxEven"/><text style="dominant-baseline: middle; font-size: 10.2px;" transform="translate(67.05220031738281,57)" y="0" x="0" id="text-entity-ChatMedium-2b7a99cf-cd24-448d-a213-55ca9f25c245-attr-2-name" class="er entityLabel">INSTAGRAM</text><rect height="22" width="62.05220031738281" y="68" x="0" class="er attributeBoxOdd"/><text style="dominant-baseline: middle; font-size: 10.2px;" transform="translate(5,79)" y="0" x="0" id="text-entity-ChatMedium-2b7a99cf-cd24-448d-a213-55ca9f25c245-attr-3-type" class="er entityLabel">WHATSAPP</text><rect height="22" width="62.05220031738281" y="68" x="62.05220031738281" class="er attributeBoxOdd"/><text style="dominant-baseline: middle; font-size: 10.2px;" transform="translate(67.05220031738281,79)" y="0" x="0" id="text-entity-ChatMedium-2b7a99cf-cd24-448d-a213-55ca9f25c245-attr-3-name" class="er entityLabel">WHATSAPP</text></g><g transform="translate(349.74578857421875,700 )" id="entity-Enterprize-b4eb6ef3-f651-4e87-9813-c5200a962f02"><rect height="134" width="135.38717651367188" y="0" x="0" class="er entityBox"/><text style="dominant-baseline: middle; text-anchor: middle; font-size: 12px;" transform="translate(67.69358825683594,12)" y="0" x="0" id="text-entity-Enterprize-b4eb6ef3-f651-4e87-9813-c5200a962f02" class="er entityLabel">Enterprize</text><rect height="22" width="54.095550537109375" y="24" x="0" class="er attributeBoxOdd"/><text style="dominant-baseline: middle; font-size: 10.2px;" transform="translate(5,35)" y="0" x="0" id="text-entity-Enterprize-b4eb6ef3-f651-4e87-9813-c5200a962f02-attr-1-type" class="er entityLabel">Int</text><rect height="22" width="58.60394287109375" y="24" x="54.095550537109375" class="er attributeBoxOdd"/><text style="dominant-baseline: middle; font-size: 10.2px;" transform="translate(59.095550537109375,35)" y="0" x="0" id="text-entity-Enterprize-b4eb6ef3-f651-4e87-9813-c5200a962f02-attr-1-name" class="er entityLabel">id</text><rect height="22" width="22.68768310546875" y="24" x="112.69949340820312" class="er attributeBoxOdd"/><text style="dominant-baseline: middle; font-size: 10.2px;" transform="translate(117.69949340820312,35)" y="0" x="0" id="text-entity-Enterprize-b4eb6ef3-f651-4e87-9813-c5200a962f02-attr-1-key" class="er entityLabel">PK</text><rect height="22" width="54.095550537109375" y="46" x="0" class="er attributeBoxEven"/><text style="dominant-baseline: middle; font-size: 10.2px;" transform="translate(5,57)" y="0" x="0" id="text-entity-Enterprize-b4eb6ef3-f651-4e87-9813-c5200a962f02-attr-2-type" class="er entityLabel">DateTime</text><rect height="22" width="58.60394287109375" y="46" x="54.095550537109375" class="er attributeBoxEven"/><text style="dominant-baseline: middle; font-size: 10.2px;" transform="translate(59.095550537109375,57)" y="0" x="0" id="text-entity-Enterprize-b4eb6ef3-f651-4e87-9813-c5200a962f02-attr-2-name" class="er entityLabel">createdAt</text><rect height="22" width="22.68768310546875" y="46" x="112.69949340820312" class="er attributeBoxEven"/><text style="dominant-baseline: middle; font-size: 10.2px;" transform="translate(117.69949340820312,57)" y="0" x="0" id="text-entity-Enterprize-b4eb6ef3-f651-4e87-9813-c5200a962f02-attr-2-key" class="er entityLabel"/><rect height="22" width="54.095550537109375" y="68" x="0" class="er attributeBoxOdd"/><text style="dominant-baseline: middle; font-size: 10.2px;" transform="translate(5,79)" y="0" x="0" id="text-entity-Enterprize-b4eb6ef3-f651-4e87-9813-c5200a962f02-attr-3-type" class="er entityLabel">DateTime</text><rect height="22" width="58.60394287109375" y="68" x="54.095550537109375" class="er attributeBoxOdd"/><text style="dominant-baseline: middle; font-size: 10.2px;" transform="translate(59.095550537109375,79)" y="0" x="0" id="text-entity-Enterprize-b4eb6ef3-f651-4e87-9813-c5200a962f02-attr-3-name" class="er entityLabel">updatedAt</text><rect height="22" width="22.68768310546875" y="68" x="112.69949340820312" class="er attributeBoxOdd"/><text style="dominant-baseline: middle; font-size: 10.2px;" transform="translate(117.69949340820312,79)" y="0" x="0" id="text-entity-Enterprize-b4eb6ef3-f651-4e87-9813-c5200a962f02-attr-3-key" class="er entityLabel"/><rect height="22" width="54.095550537109375" y="90" x="0" class="er attributeBoxEven"/><text style="dominant-baseline: middle; font-size: 10.2px;" transform="translate(5,101)" y="0" x="0" id="text-entity-Enterprize-b4eb6ef3-f651-4e87-9813-c5200a962f02-attr-4-type" class="er entityLabel">String</text><rect height="22" width="58.60394287109375" y="90" x="54.095550537109375" class="er attributeBoxEven"/><text style="dominant-baseline: middle; font-size: 10.2px;" transform="translate(59.095550537109375,101)" y="0" x="0" id="text-entity-Enterprize-b4eb6ef3-f651-4e87-9813-c5200a962f02-attr-4-name" class="er entityLabel">email</text><rect height="22" width="22.68768310546875" y="90" x="112.69949340820312" class="er attributeBoxEven"/><text style="dominant-baseline: middle; font-size: 10.2px;" transform="translate(117.69949340820312,101)" y="0" x="0" id="text-entity-Enterprize-b4eb6ef3-f651-4e87-9813-c5200a962f02-attr-4-key" class="er entityLabel"/><rect height="22" width="54.095550537109375" y="112" x="0" class="er attributeBoxOdd"/><text style="dominant-baseline: middle; font-size: 10.2px;" transform="translate(5,123)" y="0" x="0" id="text-entity-Enterprize-b4eb6ef3-f651-4e87-9813-c5200a962f02-attr-5-type" class="er entityLabel">String</text><rect height="22" width="58.60394287109375" y="112" x="54.095550537109375" class="er attributeBoxOdd"/><text style="dominant-baseline: middle; font-size: 10.2px;" transform="translate(59.095550537109375,123)" y="0" x="0" id="text-entity-Enterprize-b4eb6ef3-f651-4e87-9813-c5200a962f02-attr-5-name" class="er entityLabel">name</text><rect height="22" width="22.68768310546875" y="112" x="112.69949340820312" class="er attributeBoxOdd"/><text style="dominant-baseline: middle; font-size: 10.2px;" transform="translate(117.69949340820312,123)" y="0" x="0" id="text-entity-Enterprize-b4eb6ef3-f651-4e87-9813-c5200a962f02-attr-5-key" class="er entityLabel"/></g><g transform="translate(20,488 )" id="entity-Agent-1e298533-4351-48fe-bf6b-8fe223fb8af8"><rect height="112" width="135.38717651367188" y="0" x="0" class="er entityBox"/><text style="dominant-baseline: middle; text-anchor: middle; font-size: 12px;" transform="translate(67.69358825683594,12)" y="0" x="0" id="text-entity-Agent-1e298533-4351-48fe-bf6b-8fe223fb8af8" class="er entityLabel">Agent</text><rect height="22" width="54.095550537109375" y="24" x="0" class="er attributeBoxOdd"/><text style="dominant-baseline: middle; font-size: 10.2px;" transform="translate(5,35)" y="0" x="0" id="text-entity-Agent-1e298533-4351-48fe-bf6b-8fe223fb8af8-attr-1-type" class="er entityLabel">Int</text><rect height="22" width="58.60394287109375" y="24" x="54.095550537109375" class="er attributeBoxOdd"/><text style="dominant-baseline: middle; font-size: 10.2px;" transform="translate(59.095550537109375,35)" y="0" x="0" id="text-entity-Agent-1e298533-4351-48fe-bf6b-8fe223fb8af8-attr-1-name" class="er entityLabel">id</text><rect height="22" width="22.68768310546875" y="24" x="112.69949340820312" class="er attributeBoxOdd"/><text style="dominant-baseline: middle; font-size: 10.2px;" transform="translate(117.69949340820312,35)" y="0" x="0" id="text-entity-Agent-1e298533-4351-48fe-bf6b-8fe223fb8af8-attr-1-key" class="er entityLabel">PK</text><rect height="22" width="54.095550537109375" y="46" x="0" class="er attributeBoxEven"/><text style="dominant-baseline: middle; font-size: 10.2px;" transform="translate(5,57)" y="0" x="0" id="text-entity-Agent-1e298533-4351-48fe-bf6b-8fe223fb8af8-attr-2-type" class="er entityLabel">DateTime</text><rect height="22" width="58.60394287109375" y="46" x="54.095550537109375" class="er attributeBoxEven"/><text style="dominant-baseline: middle; font-size: 10.2px;" transform="translate(59.095550537109375,57)" y="0" x="0" id="text-entity-Agent-1e298533-4351-48fe-bf6b-8fe223fb8af8-attr-2-name" class="er entityLabel">createdAt</text><rect height="22" width="22.68768310546875" y="46" x="112.69949340820312" class="er attributeBoxEven"/><text style="dominant-baseline: middle; font-size: 10.2px;" transform="translate(117.69949340820312,57)" y="0" x="0" id="text-entity-Agent-1e298533-4351-48fe-bf6b-8fe223fb8af8-attr-2-key" class="er entityLabel"/><rect height="22" width="54.095550537109375" y="68" x="0" class="er attributeBoxOdd"/><text style="dominant-baseline: middle; font-size: 10.2px;" transform="translate(5,79)" y="0" x="0" id="text-entity-Agent-1e298533-4351-48fe-bf6b-8fe223fb8af8-attr-3-type" class="er entityLabel">DateTime</text><rect height="22" width="58.60394287109375" y="68" x="54.095550537109375" class="er attributeBoxOdd"/><text style="dominant-baseline: middle; font-size: 10.2px;" transform="translate(59.095550537109375,79)" y="0" x="0" id="text-entity-Agent-1e298533-4351-48fe-bf6b-8fe223fb8af8-attr-3-name" class="er entityLabel">updatedAt</text><rect height="22" width="22.68768310546875" y="68" x="112.69949340820312" class="er attributeBoxOdd"/><text style="dominant-baseline: middle; font-size: 10.2px;" transform="translate(117.69949340820312,79)" y="0" x="0" id="text-entity-Agent-1e298533-4351-48fe-bf6b-8fe223fb8af8-attr-3-key" class="er entityLabel"/><rect height="22" width="54.095550537109375" y="90" x="0" class="er attributeBoxEven"/><text style="dominant-baseline: middle; font-size: 10.2px;" transform="translate(5,101)" y="0" x="0" id="text-entity-Agent-1e298533-4351-48fe-bf6b-8fe223fb8af8-attr-4-type" class="er entityLabel">String</text><rect height="22" width="58.60394287109375" y="90" x="54.095550537109375" class="er attributeBoxEven"/><text style="dominant-baseline: middle; font-size: 10.2px;" transform="translate(59.095550537109375,101)" y="0" x="0" id="text-entity-Agent-1e298533-4351-48fe-bf6b-8fe223fb8af8-attr-4-name" class="er entityLabel">name</text><rect height="22" width="22.68768310546875" y="90" x="112.69949340820312" class="er attributeBoxEven"/><text style="dominant-baseline: middle; font-size: 10.2px;" transform="translate(117.69949340820312,101)" y="0" x="0" id="text-entity-Agent-1e298533-4351-48fe-bf6b-8fe223fb8af8-attr-4-key" class="er entityLabel"/></g><g transform="translate(152.15799713134766,20 )" id="entity-Ticket-3334809b-14f8-47c9-bf05-58c699bb6ce5"><rect height="134" width="196.63961791992188" y="0" x="0" class="er entityBox"/><text style="dominant-baseline: middle; text-anchor: middle; font-size: 12px;" transform="translate(98.31980895996094,12)" y="0" x="0" id="text-entity-Ticket-3334809b-14f8-47c9-bf05-58c699bb6ce5" class="er entityLabel">Ticket</text><rect height="22" width="68.13545227050781" y="24" x="0" class="er attributeBoxOdd"/><text style="dominant-baseline: middle; font-size: 10.2px;" transform="translate(5,35)" y="0" x="0" id="text-entity-Ticket-3334809b-14f8-47c9-bf05-58c699bb6ce5-attr-1-type" class="er entityLabel">Int</text><rect height="22" width="58.60394287109375" y="24" x="68.13545227050781" class="er attributeBoxOdd"/><text style="dominant-baseline: middle; font-size: 10.2px;" transform="translate(73.13545227050781,35)" y="0" x="0" id="text-entity-Ticket-3334809b-14f8-47c9-bf05-58c699bb6ce5-attr-1-name" class="er entityLabel">id</text><rect height="22" width="22.68768310546875" y="24" x="126.73939514160156" class="er attributeBoxOdd"/><text style="dominant-baseline: middle; font-size: 10.2px;" transform="translate(131.73939514160156,35)" y="0" x="0" id="text-entity-Ticket-3334809b-14f8-47c9-bf05-58c699bb6ce5-attr-1-key" class="er entityLabel">PK</text><rect height="22" width="47.21253967285156" y="24" x="149.4270782470703" class="er attributeBoxOdd"/><text style="dominant-baseline: middle; font-size: 10.2px;" transform="translate(154.4270782470703,35)" y="0" x="0" id="text-entity-Ticket-3334809b-14f8-47c9-bf05-58c699bb6ce5-attr-1-comment" class="er entityLabel"/><rect height="22" width="68.13545227050781" y="46" x="0" class="er attributeBoxEven"/><text style="dominant-baseline: middle; font-size: 10.2px;" transform="translate(5,57)" y="0" x="0" id="text-entity-Ticket-3334809b-14f8-47c9-bf05-58c699bb6ce5-attr-2-type" class="er entityLabel">DateTime</text><rect height="22" width="58.60394287109375" y="46" x="68.13545227050781" class="er attributeBoxEven"/><text style="dominant-baseline: middle; font-size: 10.2px;" transform="translate(73.13545227050781,57)" y="0" x="0" id="text-entity-Ticket-3334809b-14f8-47c9-bf05-58c699bb6ce5-attr-2-name" class="er entityLabel">createdAt</text><rect height="22" width="22.68768310546875" y="46" x="126.73939514160156" class="er attributeBoxEven"/><text style="dominant-baseline: middle; font-size: 10.2px;" transform="translate(131.73939514160156,57)" y="0" x="0" id="text-entity-Ticket-3334809b-14f8-47c9-bf05-58c699bb6ce5-attr-2-key" class="er entityLabel"/><rect height="22" width="47.21253967285156" y="46" x="149.4270782470703" class="er attributeBoxEven"/><text style="dominant-baseline: middle; font-size: 10.2px;" transform="translate(154.4270782470703,57)" y="0" x="0" id="text-entity-Ticket-3334809b-14f8-47c9-bf05-58c699bb6ce5-attr-2-comment" class="er entityLabel"/><rect height="22" width="68.13545227050781" y="68" x="0" class="er attributeBoxOdd"/><text style="dominant-baseline: middle; font-size: 10.2px;" transform="translate(5,79)" y="0" x="0" id="text-entity-Ticket-3334809b-14f8-47c9-bf05-58c699bb6ce5-attr-3-type" class="er entityLabel">DateTime</text><rect height="22" width="58.60394287109375" y="68" x="68.13545227050781" class="er attributeBoxOdd"/><text style="dominant-baseline: middle; font-size: 10.2px;" transform="translate(73.13545227050781,79)" y="0" x="0" id="text-entity-Ticket-3334809b-14f8-47c9-bf05-58c699bb6ce5-attr-3-name" class="er entityLabel">updatedAt</text><rect height="22" width="22.68768310546875" y="68" x="126.73939514160156" class="er attributeBoxOdd"/><text style="dominant-baseline: middle; font-size: 10.2px;" transform="translate(131.73939514160156,79)" y="0" x="0" id="text-entity-Ticket-3334809b-14f8-47c9-bf05-58c699bb6ce5-attr-3-key" class="er entityLabel"/><rect height="22" width="47.21253967285156" y="68" x="149.4270782470703" class="er attributeBoxOdd"/><text style="dominant-baseline: middle; font-size: 10.2px;" transform="translate(154.4270782470703,79)" y="0" x="0" id="text-entity-Ticket-3334809b-14f8-47c9-bf05-58c699bb6ce5-attr-3-comment" class="er entityLabel"/><rect height="22" width="68.13545227050781" y="90" x="0" class="er attributeBoxEven"/><text style="dominant-baseline: middle; font-size: 10.2px;" transform="translate(5,101)" y="0" x="0" id="text-entity-Ticket-3334809b-14f8-47c9-bf05-58c699bb6ce5-attr-4-type" class="er entityLabel">TicketStatus</text><rect height="22" width="58.60394287109375" y="90" x="68.13545227050781" class="er attributeBoxEven"/><text style="dominant-baseline: middle; font-size: 10.2px;" transform="translate(73.13545227050781,101)" y="0" x="0" id="text-entity-Ticket-3334809b-14f8-47c9-bf05-58c699bb6ce5-attr-4-name" class="er entityLabel">status</text><rect height="22" width="22.68768310546875" y="90" x="126.73939514160156" class="er attributeBoxEven"/><text style="dominant-baseline: middle; font-size: 10.2px;" transform="translate(131.73939514160156,101)" y="0" x="0" id="text-entity-Ticket-3334809b-14f8-47c9-bf05-58c699bb6ce5-attr-4-key" class="er entityLabel"/><rect height="22" width="47.21253967285156" y="90" x="149.4270782470703" class="er attributeBoxEven"/><text style="dominant-baseline: middle; font-size: 10.2px;" transform="translate(154.4270782470703,101)" y="0" x="0" id="text-entity-Ticket-3334809b-14f8-47c9-bf05-58c699bb6ce5-attr-4-comment" class="er entityLabel"/><rect height="22" width="68.13545227050781" y="112" x="0" class="er attributeBoxOdd"/><text style="dominant-baseline: middle; font-size: 10.2px;" transform="translate(5,123)" y="0" x="0" id="text-entity-Ticket-3334809b-14f8-47c9-bf05-58c699bb6ce5-attr-5-type" class="er entityLabel">String</text><rect height="22" width="58.60394287109375" y="112" x="68.13545227050781" class="er attributeBoxOdd"/><text style="dominant-baseline: middle; font-size: 10.2px;" transform="translate(73.13545227050781,123)" y="0" x="0" id="text-entity-Ticket-3334809b-14f8-47c9-bf05-58c699bb6ce5-attr-5-name" class="er entityLabel">body</text><rect height="22" width="22.68768310546875" y="112" x="126.73939514160156" class="er attributeBoxOdd"/><text style="dominant-baseline: middle; font-size: 10.2px;" transform="translate(131.73939514160156,123)" y="0" x="0" id="text-entity-Ticket-3334809b-14f8-47c9-bf05-58c699bb6ce5-attr-5-key" class="er entityLabel"/><rect height="22" width="47.21253967285156" y="112" x="149.4270782470703" class="er attributeBoxOdd"/><text style="dominant-baseline: middle; font-size: 10.2px;" transform="translate(154.4270782470703,123)" y="0" x="0" id="text-entity-Ticket-3334809b-14f8-47c9-bf05-58c699bb6ce5-attr-5-comment" class="er entityLabel">nullable</text></g><g transform="translate(588.6938247680664,254 )" id="entity-Chat-8d7c081c-ef66-4f05-9b1a-2b3fb71ce143"><rect height="134" width="156.770751953125" y="0" x="0" class="er entityBox"/><text style="dominant-baseline: middle; text-anchor: middle; font-size: 12px;" transform="translate(78.3853759765625,12)" y="0" x="0" id="text-entity-Chat-8d7c081c-ef66-4f05-9b1a-2b3fb71ce143" class="er entityLabel">Chat</text><rect height="22" width="67.04153442382812" y="24" x="0" class="er attributeBoxOdd"/><text style="dominant-baseline: middle; font-size: 10.2px;" transform="translate(5,35)" y="0" x="0" id="text-entity-Chat-8d7c081c-ef66-4f05-9b1a-2b3fb71ce143-attr-1-type" class="er entityLabel">Int</text><rect height="22" width="67.04153442382812" y="24" x="67.04153442382812" class="er attributeBoxOdd"/><text style="dominant-baseline: middle; font-size: 10.2px;" transform="translate(72.04153442382812,35)" y="0" x="0" id="text-entity-Chat-8d7c081c-ef66-4f05-9b1a-2b3fb71ce143-attr-1-name" class="er entityLabel">id</text><rect height="22" width="22.68768310546875" y="24" x="134.08306884765625" class="er attributeBoxOdd"/><text style="dominant-baseline: middle; font-size: 10.2px;" transform="translate(139.08306884765625,35)" y="0" x="0" id="text-entity-Chat-8d7c081c-ef66-4f05-9b1a-2b3fb71ce143-attr-1-key" class="er entityLabel">PK</text><rect height="22" width="67.04153442382812" y="46" x="0" class="er attributeBoxEven"/><text style="dominant-baseline: middle; font-size: 10.2px;" transform="translate(5,57)" y="0" x="0" id="text-entity-Chat-8d7c081c-ef66-4f05-9b1a-2b3fb71ce143-attr-2-type" class="er entityLabel">DateTime</text><rect height="22" width="67.04153442382812" y="46" x="67.04153442382812" class="er attributeBoxEven"/><text style="dominant-baseline: middle; font-size: 10.2px;" transform="translate(72.04153442382812,57)" y="0" x="0" id="text-entity-Chat-8d7c081c-ef66-4f05-9b1a-2b3fb71ce143-attr-2-name" class="er entityLabel">createdAt</text><rect height="22" width="22.68768310546875" y="46" x="134.08306884765625" class="er attributeBoxEven"/><text style="dominant-baseline: middle; font-size: 10.2px;" transform="translate(139.08306884765625,57)" y="0" x="0" id="text-entity-Chat-8d7c081c-ef66-4f05-9b1a-2b3fb71ce143-attr-2-key" class="er entityLabel"/><rect height="22" width="67.04153442382812" y="68" x="0" class="er attributeBoxOdd"/><text style="dominant-baseline: middle; font-size: 10.2px;" transform="translate(5,79)" y="0" x="0" id="text-entity-Chat-8d7c081c-ef66-4f05-9b1a-2b3fb71ce143-attr-3-type" class="er entityLabel">DateTime</text><rect height="22" width="67.04153442382812" y="68" x="67.04153442382812" class="er attributeBoxOdd"/><text style="dominant-baseline: middle; font-size: 10.2px;" transform="translate(72.04153442382812,79)" y="0" x="0" id="text-entity-Chat-8d7c081c-ef66-4f05-9b1a-2b3fb71ce143-attr-3-name" class="er entityLabel">updatedAt</text><rect height="22" width="22.68768310546875" y="68" x="134.08306884765625" class="er attributeBoxOdd"/><text style="dominant-baseline: middle; font-size: 10.2px;" transform="translate(139.08306884765625,79)" y="0" x="0" id="text-entity-Chat-8d7c081c-ef66-4f05-9b1a-2b3fb71ce143-attr-3-key" class="er entityLabel"/><rect height="22" width="67.04153442382812" y="90" x="0" class="er attributeBoxEven"/><text style="dominant-baseline: middle; font-size: 10.2px;" transform="translate(5,101)" y="0" x="0" id="text-entity-Chat-8d7c081c-ef66-4f05-9b1a-2b3fb71ce143-attr-4-type" class="er entityLabel">ChatMedium</text><rect height="22" width="67.04153442382812" y="90" x="67.04153442382812" class="er attributeBoxEven"/><text style="dominant-baseline: middle; font-size: 10.2px;" transform="translate(72.04153442382812,101)" y="0" x="0" id="text-entity-Chat-8d7c081c-ef66-4f05-9b1a-2b3fb71ce143-attr-4-name" class="er entityLabel">ChatMedium</text><rect height="22" width="22.68768310546875" y="90" x="134.08306884765625" class="er attributeBoxEven"/><text style="dominant-baseline: middle; font-size: 10.2px;" transform="translate(139.08306884765625,101)" y="0" x="0" id="text-entity-Chat-8d7c081c-ef66-4f05-9b1a-2b3fb71ce143-attr-4-key" class="er entityLabel"/><rect height="22" width="67.04153442382812" y="112" x="0" class="er attributeBoxOdd"/><text style="dominant-baseline: middle; font-size: 10.2px;" transform="translate(5,123)" y="0" x="0" id="text-entity-Chat-8d7c081c-ef66-4f05-9b1a-2b3fb71ce143-attr-5-type" class="er entityLabel">String</text><rect height="22" width="67.04153442382812" y="112" x="67.04153442382812" class="er attributeBoxOdd"/><text style="dominant-baseline: middle; font-size: 10.2px;" transform="translate(72.04153442382812,123)" y="0" x="0" id="text-entity-Chat-8d7c081c-ef66-4f05-9b1a-2b3fb71ce143-attr-5-name" class="er entityLabel">ChatKey</text><rect height="22" width="22.68768310546875" y="112" x="134.08306884765625" class="er attributeBoxOdd"/><text style="dominant-baseline: middle; font-size: 10.2px;" transform="translate(139.08306884765625,123)" y="0" x="0" id="text-entity-Chat-8d7c081c-ef66-4f05-9b1a-2b3fb71ce143-attr-5-key" class="er entityLabel"/></g><g transform="translate(654.2874298095703,31 )" id="entity-ChatItem-285f0a2e-0352-42c4-b431-130932bc49d4"><rect height="112" width="133.02642822265625" y="0" x="0" class="er entityBox"/><text style="dominant-baseline: middle; text-anchor: middle; font-size: 12px;" transform="translate(66.51321411132812,12)" y="0" x="0" id="text-entity-ChatItem-285f0a2e-0352-42c4-b431-130932bc49d4" class="er entityLabel">ChatItem</text><rect height="22" width="54.095550537109375" y="24" x="0" class="er attributeBoxOdd"/><text style="dominant-baseline: middle; font-size: 10.2px;" transform="translate(5,35)" y="0" x="0" id="text-entity-ChatItem-285f0a2e-0352-42c4-b431-130932bc49d4-attr-1-type" class="er entityLabel">Int</text><rect height="22" width="56.243194580078125" y="24" x="54.095550537109375" class="er attributeBoxOdd"/><text style="dominant-baseline: middle; font-size: 10.2px;" transform="translate(59.095550537109375,35)" y="0" x="0" id="text-entity-ChatItem-285f0a2e-0352-42c4-b431-130932bc49d4-attr-1-name" class="er entityLabel">id</text><rect height="22" width="22.68768310546875" y="24" x="110.3387451171875" class="er attributeBoxOdd"/><text style="dominant-baseline: middle; font-size: 10.2px;" transform="translate(115.3387451171875,35)" y="0" x="0" id="text-entity-ChatItem-285f0a2e-0352-42c4-b431-130932bc49d4-attr-1-key" class="er entityLabel">PK</text><rect height="22" width="54.095550537109375" y="46" x="0" class="er attributeBoxEven"/><text style="dominant-baseline: middle; font-size: 10.2px;" transform="translate(5,57)" y="0" x="0" id="text-entity-ChatItem-285f0a2e-0352-42c4-b431-130932bc49d4-attr-2-type" class="er entityLabel">DateTime</text><rect height="22" width="56.243194580078125" y="46" x="54.095550537109375" class="er attributeBoxEven"/><text style="dominant-baseline: middle; font-size: 10.2px;" transform="translate(59.095550537109375,57)" y="0" x="0" id="text-entity-ChatItem-285f0a2e-0352-42c4-b431-130932bc49d4-attr-2-name" class="er entityLabel">createdAt</text><rect height="22" width="22.68768310546875" y="46" x="110.3387451171875" class="er attributeBoxEven"/><text style="dominant-baseline: middle; font-size: 10.2px;" transform="translate(115.3387451171875,57)" y="0" x="0" id="text-entity-ChatItem-285f0a2e-0352-42c4-b431-130932bc49d4-attr-2-key" class="er entityLabel"/><rect height="22" width="54.095550537109375" y="68" x="0" class="er attributeBoxOdd"/><text style="dominant-baseline: middle; font-size: 10.2px;" transform="translate(5,79)" y="0" x="0" id="text-entity-ChatItem-285f0a2e-0352-42c4-b431-130932bc49d4-attr-3-type" class="er entityLabel">String</text><rect height="22" width="56.243194580078125" y="68" x="54.095550537109375" class="er attributeBoxOdd"/><text style="dominant-baseline: middle; font-size: 10.2px;" transform="translate(59.095550537109375,79)" y="0" x="0" id="text-entity-ChatItem-285f0a2e-0352-42c4-b431-130932bc49d4-attr-3-name" class="er entityLabel">body</text><rect height="22" width="22.68768310546875" y="68" x="110.3387451171875" class="er attributeBoxOdd"/><text style="dominant-baseline: middle; font-size: 10.2px;" transform="translate(115.3387451171875,79)" y="0" x="0" id="text-entity-ChatItem-285f0a2e-0352-42c4-b431-130932bc49d4-attr-3-key" class="er entityLabel"/><rect height="22" width="54.095550537109375" y="90" x="0" class="er attributeBoxEven"/><text style="dominant-baseline: middle; font-size: 10.2px;" transform="translate(5,101)" y="0" x="0" id="text-entity-ChatItem-285f0a2e-0352-42c4-b431-130932bc49d4-attr-4-type" class="er entityLabel">String</text><rect height="22" width="56.243194580078125" y="90" x="54.095550537109375" class="er attributeBoxEven"/><text style="dominant-baseline: middle; font-size: 10.2px;" transform="translate(59.095550537109375,101)" y="0" x="0" id="text-entity-ChatItem-285f0a2e-0352-42c4-b431-130932bc49d4-attr-4-name" class="er entityLabel">media</text><rect height="22" width="22.68768310546875" y="90" x="110.3387451171875" class="er attributeBoxEven"/><text style="dominant-baseline: middle; font-size: 10.2px;" transform="translate(115.3387451171875,101)" y="0" x="0" id="text-entity-ChatItem-285f0a2e-0352-42c4-b431-130932bc49d4-attr-4-key" class="er entityLabel"/></g><g transform="translate(712.1698303222656,488 )" id="entity-Customer-8681d44f-bf0c-419a-88fa-e7eda17be733"><rect height="112" width="145.59878540039062" y="0" x="0" class="er entityBox"/><text style="dominant-baseline: middle; text-anchor: middle; font-size: 12px;" transform="translate(72.79939270019531,12)" y="0" x="0" id="text-entity-Customer-8681d44f-bf0c-419a-88fa-e7eda17be733" class="er entityLabel">Customer</text><rect height="22" width="37.39605712890625" y="24" x="0" class="er attributeBoxOdd"/><text style="dominant-baseline: middle; font-size: 10.2px;" transform="translate(5,35)" y="0" x="0" id="text-entity-Customer-8681d44f-bf0c-419a-88fa-e7eda17be733-attr-1-type" class="er entityLabel">Int</text><rect height="22" width="38.30250549316406" y="24" x="37.39605712890625" class="er attributeBoxOdd"/><text style="dominant-baseline: middle; font-size: 10.2px;" transform="translate(42.39605712890625,35)" y="0" x="0" id="text-entity-Customer-8681d44f-bf0c-419a-88fa-e7eda17be733-attr-1-name" class="er entityLabel">id</text><rect height="22" width="22.68768310546875" y="24" x="75.69856262207031" class="er attributeBoxOdd"/><text style="dominant-baseline: middle; font-size: 10.2px;" transform="translate(80.69856262207031,35)" y="0" x="0" id="text-entity-Customer-8681d44f-bf0c-419a-88fa-e7eda17be733-attr-1-key" class="er entityLabel">PK</text><rect height="22" width="47.21253967285156" y="24" x="98.38624572753906" class="er attributeBoxOdd"/><text style="dominant-baseline: middle; font-size: 10.2px;" transform="translate(103.38624572753906,35)" y="0" x="0" id="text-entity-Customer-8681d44f-bf0c-419a-88fa-e7eda17be733-attr-1-comment" class="er entityLabel"/><rect height="22" width="37.39605712890625" y="46" x="0" class="er attributeBoxEven"/><text style="dominant-baseline: middle; font-size: 10.2px;" transform="translate(5,57)" y="0" x="0" id="text-entity-Customer-8681d44f-bf0c-419a-88fa-e7eda17be733-attr-2-type" class="er entityLabel">String</text><rect height="22" width="38.30250549316406" y="46" x="37.39605712890625" class="er attributeBoxEven"/><text style="dominant-baseline: middle; font-size: 10.2px;" transform="translate(42.39605712890625,57)" y="0" x="0" id="text-entity-Customer-8681d44f-bf0c-419a-88fa-e7eda17be733-attr-2-name" class="er entityLabel">name</text><rect height="22" width="22.68768310546875" y="46" x="75.69856262207031" class="er attributeBoxEven"/><text style="dominant-baseline: middle; font-size: 10.2px;" transform="translate(80.69856262207031,57)" y="0" x="0" id="text-entity-Customer-8681d44f-bf0c-419a-88fa-e7eda17be733-attr-2-key" class="er entityLabel"/><rect height="22" width="47.21253967285156" y="46" x="98.38624572753906" class="er attributeBoxEven"/><text style="dominant-baseline: middle; font-size: 10.2px;" transform="translate(103.38624572753906,57)" y="0" x="0" id="text-entity-Customer-8681d44f-bf0c-419a-88fa-e7eda17be733-attr-2-comment" class="er entityLabel"/><rect height="22" width="37.39605712890625" y="68" x="0" class="er attributeBoxOdd"/><text style="dominant-baseline: middle; font-size: 10.2px;" transform="translate(5,79)" y="0" x="0" id="text-entity-Customer-8681d44f-bf0c-419a-88fa-e7eda17be733-attr-3-type" class="er entityLabel">String</text><rect height="22" width="38.30250549316406" y="68" x="37.39605712890625" class="er attributeBoxOdd"/><text style="dominant-baseline: middle; font-size: 10.2px;" transform="translate(42.39605712890625,79)" y="0" x="0" id="text-entity-Customer-8681d44f-bf0c-419a-88fa-e7eda17be733-attr-3-name" class="er entityLabel">email</text><rect height="22" width="22.68768310546875" y="68" x="75.69856262207031" class="er attributeBoxOdd"/><text style="dominant-baseline: middle; font-size: 10.2px;" transform="translate(80.69856262207031,79)" y="0" x="0" id="text-entity-Customer-8681d44f-bf0c-419a-88fa-e7eda17be733-attr-3-key" class="er entityLabel"/><rect height="22" width="47.21253967285156" y="68" x="98.38624572753906" class="er attributeBoxOdd"/><text style="dominant-baseline: middle; font-size: 10.2px;" transform="translate(103.38624572753906,79)" y="0" x="0" id="text-entity-Customer-8681d44f-bf0c-419a-88fa-e7eda17be733-attr-3-comment" class="er entityLabel"/><rect height="22" width="37.39605712890625" y="90" x="0" class="er attributeBoxEven"/><text style="dominant-baseline: middle; font-size: 10.2px;" transform="translate(5,101)" y="0" x="0" id="text-entity-Customer-8681d44f-bf0c-419a-88fa-e7eda17be733-attr-4-type" class="er entityLabel">String</text><rect height="22" width="38.30250549316406" y="90" x="37.39605712890625" class="er attributeBoxEven"/><text style="dominant-baseline: middle; font-size: 10.2px;" transform="translate(42.39605712890625,101)" y="0" x="0" id="text-entity-Customer-8681d44f-bf0c-419a-88fa-e7eda17be733-attr-4-name" class="er entityLabel">phone</text><rect height="22" width="22.68768310546875" y="90" x="75.69856262207031" class="er attributeBoxEven"/><text style="dominant-baseline: middle; font-size: 10.2px;" transform="translate(80.69856262207031,101)" y="0" x="0" id="text-entity-Customer-8681d44f-bf0c-419a-88fa-e7eda17be733-attr-4-key" class="er entityLabel"/><rect height="22" width="47.21253967285156" y="90" x="98.38624572753906" class="er attributeBoxEven"/><text style="dominant-baseline: middle; font-size: 10.2px;" transform="translate(103.38624572753906,101)" y="0" x="0" id="text-entity-Customer-8681d44f-bf0c-419a-88fa-e7eda17be733-attr-4-comment" class="er entityLabel">nullable</text></g><rect height="14" width="56.41796875" y="682.3792114257812" x="175.02780151367188" class="er relationshipLabelBox"/><text style="text-anchor: middle; dominant-baseline: middle; font-size: 12px;" y="689.3792114257812" x="203.23678588867188" id="rel1" class="er relationshipLabel">Enterprize</text><rect height="14" width="32.203125" y="301.1656188964844" x="71.60831451416016" class="er relationshipLabelBox"/><text style="text-anchor: middle; dominant-baseline: middle; font-size: 12px;" y="308.1656188964844" x="87.70987701416016" id="rel2" class="er relationshipLabel">Agent</text><rect height="14" width="56.41796875" y="447.60906982421875" x="227.17819213867188" class="er relationshipLabelBox"/><text style="text-anchor: middle; dominant-baseline: middle; font-size: 12px;" y="454.60906982421875" x="255.38717651367188" id="rel3" class="er relationshipLabel">Enterprize</text><rect height="14" width="25.0390625" y="228.15211486816406" x="430.0544128417969" class="er relationshipLabelBox"/><text style="text-anchor: middle; dominant-baseline: middle; font-size: 12px;" y="235.15211486816406" x="442.5739440917969" id="rel4" class="er relationshipLabel">Chat</text><rect height="14" width="66.259765625" y="185.77859497070312" x="390.7333679199219" class="er relationshipLabelBox"/><text style="text-anchor: middle; dominant-baseline: middle; font-size: 12px;" y="192.77859497070312" x="423.8632507324219" id="rel5" class="er relationshipLabel">enum:status</text><rect height="14" width="100.544921875" y="407.9260559082031" x="449.015869140625" class="er relationshipLabelBox"/><text style="text-anchor: middle; dominant-baseline: middle; font-size: 12px;" y="414.9260559082031" x="499.288330078125" id="rel6" class="er relationshipLabel">enum:ChatMedium</text><rect height="14" width="56.41796875" y="576.9115600585938" x="582.8071899414062" class="er relationshipLabelBox"/><text style="text-anchor: middle; dominant-baseline: middle; font-size: 12px;" y="583.9115600585938" x="611.0161743164062" id="rel7" class="er relationshipLabel">Enterprize</text><rect height="14" width="52.294921875" y="424.7669372558594" x="746.9158935546875" class="er relationshipLabelBox"/><text style="text-anchor: middle; dominant-baseline: middle; font-size: 12px;" y="431.7669372558594" x="773.0633544921875" id="rel8" class="er relationshipLabel">Customer</text><rect height="14" width="25.0390625" y="193.1976318359375" x="704.845947265625" class="er relationshipLabelBox"/><text style="text-anchor: middle; dominant-baseline: middle; font-size: 12px;" y="200.1976318359375" x="717.365478515625" id="rel9" class="er relationshipLabel">Chat</text><rect height="14" width="56.41796875" y="684.4041137695312" x="621.919677734375" class="er relationshipLabelBox"/><text style="text-anchor: middle; dominant-baseline: middle; font-size: 12px;" y="691.4041137695312" x="650.128662109375" id="rel10" class="er relationshipLabel">Enterprize</text></svg>